<svg id="Capa_1" data-name="Capa 1" xmlns="http://www.w3.org/2000/svg" viewBox="0 0 2000 2000"><title>ICONOS_MAPA</title><path d="M829,666.26c37.43,6.18,75.34,10.33,112.22,18.88,197.27,45.77,356.9,153.47,491.47,301.69,4.08,4.49,7.6,9.49,11.28,14.12-182.62,224.82-504.54,382-798.27,318.64,88-89,135.51-194.86,134.86-319.26-.65-123.61-47-229.5-136.59-321.19l100.15-12.88Z"/><path d="M113,997.91c37.65-35.06,74.27-71.3,113.15-104.94,81.32-70.37,170.4-128.74,270.74-168.92,9.85-3.94,17.27-4.46,26.85,2.16,184.11,127.11,196,390.22,24.51,533.59-23.29,19.46-42.73,25.34-73.15,11.42q-204.44-93.56-352.73-261.28a57.59,57.59,0,0,1-4.05-5.87Zm280.22,59.76h0a54.2,54.2,0,0,0,54.2-54.2h0a54.2,54.2,0,0,0-54.2-54.19h0a54.2,54.2,0,0,0-54.2,54.19h0A54.2,54.2,0,0,0,393.22,1057.67Z"/><path d="M1886.12,779.33c-5.38,11.25-11,23.35-16.89,35.32C1841.61,870.82,1814.3,927.15,1786,983c-6.42,12.66-6.88,22.64-.27,35.51,31.42,61.13,61.8,122.81,92.52,184.31,2.71,5.42,5.25,10.93,8.78,18.29-5.83.58-10.3,1.59-14.71,1.38-50.77-2.42-102.89,1.4-152-8.94-100.74-21.2-168.83-119.5-163.84-225,4.88-103,85.53-196.19,186-208.18C1789.36,774.69,1837.49,779.33,1886.12,779.33Z"/></svg>