<svg id="Capa_1" data-name="Capa 1" xmlns="http://www.w3.org/2000/svg" viewBox="0 0 2000 2000"><title>ICONOS_MAPA</title><path d="M1024.56,1481.45c-9-1.6-18.15-2.7-27-4.9-68-17-116.12-70-126.32-139.47a200.54,200.54,0,0,1-1.94-28.67c-.15-80.68-.15-496.86.06-577.54,0-5.93-1.41-8.65-7.31-10.93-43.8-17-70.94-62.65-65.3-108.91,5.83-47.83,42.75-85.36,90.08-91.57,53.24-7,102.25,26.44,115.43,78.67,12.85,51-15.17,104-64.94,122.63-3.79,1.42-5.33,3.11-5.32,7.39.14,82.93-.23,501.36.23,584.28.32,58.78,41.8,102.15,100.2,106.14,50.86,3.48,101.67-37.34,107-88,2.73-25.88,1.68-52.15,2.36-79.1h-63.36L1203,1064.57a28.06,28.06,0,0,1,.9,4.55c-.1,84.76.6,169.54-.72,254.29-.68,43.73-19.36,80.92-50.78,111.27-28,27-61.67,42.19-100.45,45.92a16,16,0,0,0-2.88.85Zm-123-816.84a41.7,41.7,0,0,0,40.85-42.38c-.48-22.84-20-41.83-42.33-41.11-23.72.77-41.87,20-41,43.51A41.6,41.6,0,0,0,901.57,664.61Z"/></svg>