<svg id="Capa_1" data-name="Capa 1" xmlns="http://www.w3.org/2000/svg" viewBox="0 0 2000 2000"><title>ICONOS_MAPA</title><path d="M1796.57,1483.55l-12.7.74s-8.22.75,3.74-17.18L1943,1078.26H1832.06V774.57h-358.6l-360.84-297H1060l-1.12,168.09h11.58v16.81l-4.48-.75v23.91h11.21v4.48H1082l0,16.86a10.31,10.31,0,0,1-1.32,6.24l-7.5-2.32-6.3,2.11c-2.44-3.59-2.64-9.34-2.47-11.44l-6-.5c0,.38-.57,7.9,2.64,13.88L918.76,762.62V924.73h322V762.62L1086.53,715a16.55,16.55,0,0,0,1.44-8.46V690.15h7.1v-6.72h9V662.51h-9.71V645.7h17.18V538.12L1402.86,834V1080.5H1284.08l-44.83,90.77H581.45l-59.39-89.65v-54.91H57v50.43l283.52,390s19.05,15.69,0,15.69c0,0-31.38-6.72-31.38,19s19.92,19.05,19.92,19.05l1470.5,1.49s17.18-2.24,17.18-20.91S1796.57,1483.55,1796.57,1483.55ZM935.84,760.37l129.29-40.63a13.65,13.65,0,0,0,8.27,2.53,15.87,15.87,0,0,0,9-2.43l139.84,40.53Z"/><rect x="964.7" y="1023.91" width="261.66" height="128.87"/><rect x="589.29" y="1072.09" width="304.25" height="82.93"/></svg>