<svg xmlns="http://www.w3.org/2000/svg" viewBox="0 0 2000 2000"><title>ICONOS_ESPECIES</title><g id="PARGO"><path d="M1225.94,1247.3c-5,17.54-11,20.81-28.35,15.91-14.89-4.19-26-13.91-36.71-24.7-12.23-12.39-17.61-12.5-29.2-2.41-11.13-9.68-21.9-19.94-33.71-28.83-3.86-2.9-11.28-4.5-15.58-2.84-49.41,19.06-99.72,35.1-152.43,41-27,3-54.51,1.83-81.78,2.51-4.42.11-8.84,0-18.28,0,33.4,23.59,26.74,57.9,36.49,89.51-33.23-.75-58-17.25-84.23-31.69-13.3,34.62-4.68,74-27.23,107.71-8.47-5.69-16.57-10.66-24.15-16.31-56.88-42.41-86.27-101.23-99.72-169.16-2-10.36-7.13-12-16.39-14.43-36.94-9.87-74-19.9-109.79-33.31a256.62,256.62,0,0,0-83.94-16.64c-29.14-.85-58.78-.55-87.2-6a142.94,142.94,0,0,1-79.88-44.88c-14-15.45-11.39-28.54,6.58-38.19,13.31-7.15,13.29-8.65,1-18.24a120,120,0,0,1-12.88-12.24C230.2,1024.65,232.83,1005.64,260,999a19.94,19.94,0,0,0,8.51-4.43c19.29-17.82,38.57-35.65,57.49-53.85q63.81-61.4,127.28-123.12C509.79,762.94,577.82,730.05,653.63,712c13.48-3.21,27.39-5.06,40.5-9.37,6.39-2.1,12.13-7.74,16.9-12.94,28.81-31.41,57.23-63.19,85.9-94.73,2-2.22,5-3.57,8.07-5.71-1.84,14-3.55,26.94-5.72,43.35,22.64-16.16,42.05-30,64.53-46.09-1.2,7.26-2.23,10.93-2.3,14.62-.09,4.39-.59,11.82,1.28,12.59,4.33,1.77,10.7,1.88,15-.1,16.15-7.53,31.8-16.16,47.49-24.3-.88,9.35-1.65,17.55-2.42,25.75l28.42-4.53c-1.64,5.23-4.2,11-5.21,17.11-2.45,14.69,2.16,19.15,16.62,15.91,11.5-2.57,22.78-6.13,36.31-9.85-2.28,7.12-4,13-6,18.71-3.68,10.55-1.45,16,11.1,14.82,8.27-.79,16.68-.15,25.49-.15-.22,4.29-1.94,10.55-.32,11.58,3.82,2.43,9.25,3.26,14,3.15,8.71-.19,17.4-1.52,26.19-2.39-5.25,14.7-4.56,16.1,11,15.61,8.35-.27,15.48.35,20.05,8.38a6.89,6.89,0,0,0,3.21,2.6c18.55,7.6,37.15,15.11,57.81,23.48-.69,8.46,7,9.39,16.78,9.87,6.28.31,12.53,4,18.53,6.82,14.46,6.71,28.76,13.76,42.45,21.42l92.28,54.54c1.17,2.09,3.08,10.51,6.86,11.44,17.42,4.33,24.37,18.77,33.54,31.18,7,9.48,6.33,20.66-1.12,27.94-8.6,8.41-20.16,14-30.85,20-4.46,2.54-10,3.24-17.33,5.49,4,3.51,5.49,6,7.58,6.59,46.48,13.91,94,26.2,142.16,14.89,34.4-8.08,66.79-24.41,100.41-36.1,42.3-14.7,84.53-29.9,127.66-41.75,15.12-4.15,33.32-1.29,49.13,2.49,16.06,3.85,17,14.41,8,28.42-20.3,31.48-39.74,63.5-59.32,95.44-14.28,23.28-28.81,46.45-42.12,70.28-12.82,23-15.48,48.62-13.8,74.3,3.48,53.25,8,106.44,12.32,159.64.36,4.5,1.89,8.91,3,13.91-16.2,9.74-32.15,6.5-46.19-2-17-10.27-34.19-21.28-48.07-35.19-31.78-31.86-61.38-65.88-92.27-98.64-22.27-23.63-42.21-50-74.24-62.32-41.16-15.79-81.21-7.36-121.09,4.82-2.62.8-5.3,5.93-5.56,9.23-1.67,21.61,6.9,39.36,20.61,55.73a520.53,520.53,0,0,1,33.73,45.74c11.14,16.7,3.22,32.14-16.81,34.54-1.38.17-3.18-.28-4.11.44-25.1,19.26-45.82,1.41-67.58-7.82C1232.73,1249.44,1229.32,1248.48,1225.94,1247.3Z"/></g></svg>